<mxfile host="Electron" modified="2024-01-28T21:19:49.202Z" agent="Mozilla/5.0 (Windows NT 10.0; Win64; x64) AppleWebKit/537.36 (KHTML, like Gecko) draw.io/22.1.11 Chrome/114.0.5735.289 Electron/25.9.8 Safari/537.36" etag="q1rWskwzm8bo7eCD0TKd" version="22.1.11" type="device">
  <diagram name="Page-1" id="CPMo-dJyylKkM75N1pmN">
    <mxGraphModel dx="4490" dy="2507" grid="1" gridSize="10" guides="1" tooltips="1" connect="1" arrows="1" fold="1" page="1" pageScale="1" pageWidth="850" pageHeight="1100" math="0" shadow="0">
      <root>
        <mxCell id="0" />
        <mxCell id="1" parent="0" />
        <mxCell id="-wmG-a33t5hdWMa0Z5-S-1" value="MOVIE" style="whiteSpace=wrap;html=1;align=center;" parent="1" vertex="1">
          <mxGeometry x="-65" y="218" width="100" height="40" as="geometry" />
        </mxCell>
        <mxCell id="-wmG-a33t5hdWMa0Z5-S-2" value="id" style="ellipse;whiteSpace=wrap;html=1;align=center;fontStyle=4;" parent="1" vertex="1">
          <mxGeometry x="-160" y="90" width="100" height="40" as="geometry" />
        </mxCell>
        <mxCell id="-wmG-a33t5hdWMa0Z5-S-3" value="name" style="ellipse;whiteSpace=wrap;html=1;align=center;" parent="1" vertex="1">
          <mxGeometry x="-25" y="90" width="100" height="40" as="geometry" />
        </mxCell>
        <mxCell id="-wmG-a33t5hdWMa0Z5-S-4" value="premiere_city" style="ellipse;whiteSpace=wrap;html=1;align=center;" parent="1" vertex="1">
          <mxGeometry x="110" y="120" width="100" height="40" as="geometry" />
        </mxCell>
        <mxCell id="-wmG-a33t5hdWMa0Z5-S-5" value="genre" style="ellipse;whiteSpace=wrap;html=1;align=center;" parent="1" vertex="1">
          <mxGeometry x="90" y="270" width="100" height="40" as="geometry" />
        </mxCell>
        <mxCell id="-wmG-a33t5hdWMa0Z5-S-6" value="country_of_origin" style="ellipse;whiteSpace=wrap;html=1;align=center;" parent="1" vertex="1">
          <mxGeometry x="-270" y="150" width="120" height="40" as="geometry" />
        </mxCell>
        <mxCell id="-wmG-a33t5hdWMa0Z5-S-7" value="production_company_name" style="ellipse;whiteSpace=wrap;html=1;align=center;" parent="1" vertex="1">
          <mxGeometry x="-270" y="270" width="160" height="50" as="geometry" />
        </mxCell>
        <mxCell id="-wmG-a33t5hdWMa0Z5-S-8" value="" style="endArrow=none;html=1;rounded=0;exitX=1;exitY=0.5;exitDx=0;exitDy=0;entryX=0;entryY=1;entryDx=0;entryDy=0;" parent="1" source="-wmG-a33t5hdWMa0Z5-S-7" target="-wmG-a33t5hdWMa0Z5-S-1" edge="1">
          <mxGeometry width="50" height="50" relative="1" as="geometry">
            <mxPoint x="-15" y="340" as="sourcePoint" />
            <mxPoint x="35" y="290" as="targetPoint" />
          </mxGeometry>
        </mxCell>
        <mxCell id="-wmG-a33t5hdWMa0Z5-S-9" value="" style="endArrow=none;html=1;rounded=0;exitX=0.933;exitY=0.725;exitDx=0;exitDy=0;entryX=0;entryY=0.25;entryDx=0;entryDy=0;exitPerimeter=0;" parent="1" source="-wmG-a33t5hdWMa0Z5-S-6" target="-wmG-a33t5hdWMa0Z5-S-1" edge="1">
          <mxGeometry width="50" height="50" relative="1" as="geometry">
            <mxPoint x="-135" y="225" as="sourcePoint" />
            <mxPoint x="-50" y="250" as="targetPoint" />
          </mxGeometry>
        </mxCell>
        <mxCell id="-wmG-a33t5hdWMa0Z5-S-10" value="" style="endArrow=none;html=1;rounded=0;exitX=0.5;exitY=1;exitDx=0;exitDy=0;entryX=0;entryY=0;entryDx=0;entryDy=0;" parent="1" source="-wmG-a33t5hdWMa0Z5-S-2" target="-wmG-a33t5hdWMa0Z5-S-1" edge="1">
          <mxGeometry width="50" height="50" relative="1" as="geometry">
            <mxPoint x="-125" y="235" as="sourcePoint" />
            <mxPoint x="-40" y="260" as="targetPoint" />
          </mxGeometry>
        </mxCell>
        <mxCell id="-wmG-a33t5hdWMa0Z5-S-11" value="" style="endArrow=none;html=1;rounded=0;exitX=0.5;exitY=1;exitDx=0;exitDy=0;entryX=0.25;entryY=0;entryDx=0;entryDy=0;" parent="1" source="-wmG-a33t5hdWMa0Z5-S-3" target="-wmG-a33t5hdWMa0Z5-S-1" edge="1">
          <mxGeometry width="50" height="50" relative="1" as="geometry">
            <mxPoint x="-115" y="245" as="sourcePoint" />
            <mxPoint x="-30" y="270" as="targetPoint" />
          </mxGeometry>
        </mxCell>
        <mxCell id="-wmG-a33t5hdWMa0Z5-S-12" value="" style="endArrow=none;html=1;rounded=0;exitX=0;exitY=1;exitDx=0;exitDy=0;entryX=0.5;entryY=0;entryDx=0;entryDy=0;" parent="1" source="-wmG-a33t5hdWMa0Z5-S-4" target="-wmG-a33t5hdWMa0Z5-S-1" edge="1">
          <mxGeometry width="50" height="50" relative="1" as="geometry">
            <mxPoint x="-105" y="255" as="sourcePoint" />
            <mxPoint x="-20" y="280" as="targetPoint" />
          </mxGeometry>
        </mxCell>
        <mxCell id="-wmG-a33t5hdWMa0Z5-S-13" value="" style="endArrow=none;html=1;rounded=0;exitX=0;exitY=1;exitDx=0;exitDy=0;entryX=1;entryY=1;entryDx=0;entryDy=0;" parent="1" source="-wmG-a33t5hdWMa0Z5-S-5" target="-wmG-a33t5hdWMa0Z5-S-1" edge="1">
          <mxGeometry width="50" height="50" relative="1" as="geometry">
            <mxPoint x="-95" y="265" as="sourcePoint" />
            <mxPoint x="-10" y="290" as="targetPoint" />
          </mxGeometry>
        </mxCell>
        <mxCell id="-wmG-a33t5hdWMa0Z5-S-14" value="ACTOR" style="whiteSpace=wrap;html=1;align=center;" parent="1" vertex="1">
          <mxGeometry x="-690" y="218" width="100" height="40" as="geometry" />
        </mxCell>
        <mxCell id="-wmG-a33t5hdWMa0Z5-S-15" value="id" style="ellipse;whiteSpace=wrap;html=1;align=center;fontStyle=4;" parent="1" vertex="1">
          <mxGeometry x="-960" y="120" width="100" height="40" as="geometry" />
        </mxCell>
        <mxCell id="-wmG-a33t5hdWMa0Z5-S-16" value="first_name" style="ellipse;whiteSpace=wrap;html=1;align=center;" parent="1" vertex="1">
          <mxGeometry x="-937.5" y="50" width="100" height="40" as="geometry" />
        </mxCell>
        <mxCell id="-wmG-a33t5hdWMa0Z5-S-17" value="last_name" style="ellipse;whiteSpace=wrap;html=1;align=center;" parent="1" vertex="1">
          <mxGeometry x="-620" y="40" width="100" height="40" as="geometry" />
        </mxCell>
        <mxCell id="-wmG-a33t5hdWMa0Z5-S-18" value="nickname" style="ellipse;whiteSpace=wrap;html=1;align=center;" parent="1" vertex="1">
          <mxGeometry x="-525" y="70" width="100" height="40" as="geometry" />
        </mxCell>
        <mxCell id="-wmG-a33t5hdWMa0Z5-S-19" value="date_of_birth" style="ellipse;whiteSpace=wrap;html=1;align=center;" parent="1" vertex="1">
          <mxGeometry x="-860" y="275" width="100" height="40" as="geometry" />
        </mxCell>
        <mxCell id="-wmG-a33t5hdWMa0Z5-S-20" value="agent_code" style="ellipse;whiteSpace=wrap;html=1;align=center;" parent="1" vertex="1">
          <mxGeometry x="-550" y="270" width="100" height="40" as="geometry" />
        </mxCell>
        <mxCell id="-wmG-a33t5hdWMa0Z5-S-21" value="" style="endArrow=none;html=1;rounded=0;exitX=0.965;exitY=0.305;exitDx=0;exitDy=0;entryX=0;entryY=1;entryDx=0;entryDy=0;exitPerimeter=0;" parent="1" source="-wmG-a33t5hdWMa0Z5-S-19" target="-wmG-a33t5hdWMa0Z5-S-14" edge="1">
          <mxGeometry width="50" height="50" relative="1" as="geometry">
            <mxPoint x="-270" y="125" as="sourcePoint" />
            <mxPoint x="-185" y="150" as="targetPoint" />
          </mxGeometry>
        </mxCell>
        <mxCell id="-wmG-a33t5hdWMa0Z5-S-22" value="" style="endArrow=none;html=1;rounded=0;exitX=1;exitY=1;exitDx=0;exitDy=0;entryX=0;entryY=0.5;entryDx=0;entryDy=0;" parent="1" source="-wmG-a33t5hdWMa0Z5-S-15" target="-wmG-a33t5hdWMa0Z5-S-14" edge="1">
          <mxGeometry width="50" height="50" relative="1" as="geometry">
            <mxPoint x="-260" y="135" as="sourcePoint" />
            <mxPoint x="-175" y="160" as="targetPoint" />
          </mxGeometry>
        </mxCell>
        <mxCell id="-wmG-a33t5hdWMa0Z5-S-23" value="" style="endArrow=none;html=1;rounded=0;exitX=0.5;exitY=1;exitDx=0;exitDy=0;entryX=0;entryY=0;entryDx=0;entryDy=0;" parent="1" source="-wmG-a33t5hdWMa0Z5-S-16" target="-wmG-a33t5hdWMa0Z5-S-14" edge="1">
          <mxGeometry width="50" height="50" relative="1" as="geometry">
            <mxPoint x="-785" y="174" as="sourcePoint" />
            <mxPoint x="-680" y="250" as="targetPoint" />
          </mxGeometry>
        </mxCell>
        <mxCell id="-wmG-a33t5hdWMa0Z5-S-24" value="" style="endArrow=none;html=1;rounded=0;exitX=0.4;exitY=0.975;exitDx=0;exitDy=0;entryX=0.832;entryY=0.05;entryDx=0;entryDy=0;exitPerimeter=0;entryPerimeter=0;" parent="1" source="-wmG-a33t5hdWMa0Z5-S-17" target="-wmG-a33t5hdWMa0Z5-S-14" edge="1">
          <mxGeometry width="50" height="50" relative="1" as="geometry">
            <mxPoint x="-775" y="184" as="sourcePoint" />
            <mxPoint x="-670" y="260" as="targetPoint" />
          </mxGeometry>
        </mxCell>
        <mxCell id="-wmG-a33t5hdWMa0Z5-S-25" value="" style="endArrow=none;html=1;rounded=0;exitX=0.5;exitY=1;exitDx=0;exitDy=0;entryX=1;entryY=0;entryDx=0;entryDy=0;" parent="1" source="-wmG-a33t5hdWMa0Z5-S-18" target="-wmG-a33t5hdWMa0Z5-S-14" edge="1">
          <mxGeometry width="50" height="50" relative="1" as="geometry">
            <mxPoint x="-620" y="139" as="sourcePoint" />
            <mxPoint x="-630" y="230" as="targetPoint" />
          </mxGeometry>
        </mxCell>
        <mxCell id="-wmG-a33t5hdWMa0Z5-S-26" value="" style="endArrow=none;html=1;rounded=0;exitX=0;exitY=0.5;exitDx=0;exitDy=0;entryX=1;entryY=1;entryDx=0;entryDy=0;" parent="1" source="-wmG-a33t5hdWMa0Z5-S-20" target="-wmG-a33t5hdWMa0Z5-S-14" edge="1">
          <mxGeometry width="50" height="50" relative="1" as="geometry">
            <mxPoint x="-510" y="180" as="sourcePoint" />
            <mxPoint x="-580" y="230" as="targetPoint" />
          </mxGeometry>
        </mxCell>
        <mxCell id="-wmG-a33t5hdWMa0Z5-S-27" value="MOVIE_ACTOR" style="whiteSpace=wrap;html=1;align=center;" parent="1" vertex="1">
          <mxGeometry x="-400" y="-70" width="100" height="40" as="geometry" />
        </mxCell>
        <mxCell id="-wmG-a33t5hdWMa0Z5-S-29" value="movie_id" style="ellipse;whiteSpace=wrap;html=1;align=center;" parent="1" vertex="1">
          <mxGeometry x="-480" y="-150" width="100" height="40" as="geometry" />
        </mxCell>
        <mxCell id="-wmG-a33t5hdWMa0Z5-S-30" value="actor_id" style="ellipse;whiteSpace=wrap;html=1;align=center;" parent="1" vertex="1">
          <mxGeometry x="-335" y="-150" width="100" height="40" as="geometry" />
        </mxCell>
        <mxCell id="-wmG-a33t5hdWMa0Z5-S-31" value="payment" style="ellipse;whiteSpace=wrap;html=1;align=center;" parent="1" vertex="1">
          <mxGeometry x="-230" y="-100" width="100" height="40" as="geometry" />
        </mxCell>
        <mxCell id="-wmG-a33t5hdWMa0Z5-S-32" value="" style="endArrow=none;html=1;rounded=0;exitX=0;exitY=0;exitDx=0;exitDy=0;entryX=0.5;entryY=1;entryDx=0;entryDy=0;" parent="1" source="-wmG-a33t5hdWMa0Z5-S-27" target="-wmG-a33t5hdWMa0Z5-S-29" edge="1">
          <mxGeometry width="50" height="50" relative="1" as="geometry">
            <mxPoint x="-445" y="-266" as="sourcePoint" />
            <mxPoint x="-350" y="-250" as="targetPoint" />
          </mxGeometry>
        </mxCell>
        <mxCell id="-wmG-a33t5hdWMa0Z5-S-33" value="" style="endArrow=none;html=1;rounded=0;exitX=0.5;exitY=0;exitDx=0;exitDy=0;" parent="1" source="-wmG-a33t5hdWMa0Z5-S-27" target="-wmG-a33t5hdWMa0Z5-S-30" edge="1">
          <mxGeometry width="50" height="50" relative="1" as="geometry">
            <mxPoint x="-380" y="-60" as="sourcePoint" />
            <mxPoint x="-430" y="-100" as="targetPoint" />
          </mxGeometry>
        </mxCell>
        <mxCell id="-wmG-a33t5hdWMa0Z5-S-34" value="" style="endArrow=none;html=1;rounded=0;exitX=1;exitY=1;exitDx=0;exitDy=0;entryX=0.5;entryY=1;entryDx=0;entryDy=0;" parent="1" source="-wmG-a33t5hdWMa0Z5-S-27" target="-wmG-a33t5hdWMa0Z5-S-31" edge="1">
          <mxGeometry width="50" height="50" relative="1" as="geometry">
            <mxPoint x="-330" y="-60" as="sourcePoint" />
            <mxPoint x="-330" y="-110" as="targetPoint" />
          </mxGeometry>
        </mxCell>
        <mxCell id="-wmG-a33t5hdWMa0Z5-S-35" value="FILM" style="whiteSpace=wrap;html=1;align=center;" parent="1" vertex="1">
          <mxGeometry x="515" y="223" width="100" height="40" as="geometry" />
        </mxCell>
        <mxCell id="-wmG-a33t5hdWMa0Z5-S-36" value="movie_id" style="ellipse;whiteSpace=wrap;html=1;align=center;" parent="1" vertex="1">
          <mxGeometry x="335" y="140" width="100" height="40" as="geometry" />
        </mxCell>
        <mxCell id="-wmG-a33t5hdWMa0Z5-S-37" value="premiere_city" style="ellipse;whiteSpace=wrap;html=1;align=center;" parent="1" vertex="1">
          <mxGeometry x="405" y="90" width="100" height="40" as="geometry" />
        </mxCell>
        <mxCell id="-wmG-a33t5hdWMa0Z5-S-38" value="first_week_earnings" style="ellipse;whiteSpace=wrap;html=1;align=center;" parent="1" vertex="1">
          <mxGeometry x="675" y="178" width="120" height="40" as="geometry" />
        </mxCell>
        <mxCell id="-wmG-a33t5hdWMa0Z5-S-39" value="premiere_format" style="ellipse;whiteSpace=wrap;html=1;align=center;" parent="1" vertex="1">
          <mxGeometry x="700" y="258" width="120" height="40" as="geometry" />
        </mxCell>
        <mxCell id="-wmG-a33t5hdWMa0Z5-S-40" value="" style="endArrow=none;html=1;rounded=0;exitX=0.5;exitY=1;exitDx=0;exitDy=0;entryX=0;entryY=0;entryDx=0;entryDy=0;" parent="1" source="-wmG-a33t5hdWMa0Z5-S-36" target="-wmG-a33t5hdWMa0Z5-S-35" edge="1">
          <mxGeometry width="50" height="50" relative="1" as="geometry">
            <mxPoint x="705" y="80" as="sourcePoint" />
            <mxPoint x="765" y="30" as="targetPoint" />
          </mxGeometry>
        </mxCell>
        <mxCell id="-wmG-a33t5hdWMa0Z5-S-41" value="" style="endArrow=none;html=1;rounded=0;entryX=0.25;entryY=0;entryDx=0;entryDy=0;exitX=0.5;exitY=1;exitDx=0;exitDy=0;" parent="1" source="-wmG-a33t5hdWMa0Z5-S-37" target="-wmG-a33t5hdWMa0Z5-S-35" edge="1">
          <mxGeometry width="50" height="50" relative="1" as="geometry">
            <mxPoint x="535" y="170" as="sourcePoint" />
            <mxPoint x="525" y="240" as="targetPoint" />
          </mxGeometry>
        </mxCell>
        <mxCell id="-wmG-a33t5hdWMa0Z5-S-42" value="" style="endArrow=none;html=1;rounded=0;entryX=0.75;entryY=0;entryDx=0;entryDy=0;exitX=0.5;exitY=1;exitDx=0;exitDy=0;" parent="1" source="-wmG-a33t5hdWMa0Z5-S-38" target="-wmG-a33t5hdWMa0Z5-S-35" edge="1">
          <mxGeometry width="50" height="50" relative="1" as="geometry">
            <mxPoint x="540" y="180" as="sourcePoint" />
            <mxPoint x="550" y="240" as="targetPoint" />
          </mxGeometry>
        </mxCell>
        <mxCell id="-wmG-a33t5hdWMa0Z5-S-43" value="" style="endArrow=none;html=1;rounded=0;entryX=1;entryY=0.5;entryDx=0;entryDy=0;exitX=0;exitY=1;exitDx=0;exitDy=0;" parent="1" source="-wmG-a33t5hdWMa0Z5-S-39" target="-wmG-a33t5hdWMa0Z5-S-35" edge="1">
          <mxGeometry width="50" height="50" relative="1" as="geometry">
            <mxPoint x="655" y="190" as="sourcePoint" />
            <mxPoint x="600" y="240" as="targetPoint" />
          </mxGeometry>
        </mxCell>
        <mxCell id="-wmG-a33t5hdWMa0Z5-S-44" value="TV_SERIES" style="whiteSpace=wrap;html=1;align=center;" parent="1" vertex="1">
          <mxGeometry x="-65" y="625" width="110" height="40" as="geometry" />
        </mxCell>
        <mxCell id="-wmG-a33t5hdWMa0Z5-S-46" value="movie_id" style="ellipse;whiteSpace=wrap;html=1;align=center;" parent="1" vertex="1">
          <mxGeometry x="-150" y="530" width="100" height="40" as="geometry" />
        </mxCell>
        <mxCell id="-wmG-a33t5hdWMa0Z5-S-47" value="tv_channel" style="ellipse;whiteSpace=wrap;html=1;align=center;" parent="1" vertex="1">
          <mxGeometry x="-240" y="625" width="100" height="40" as="geometry" />
        </mxCell>
        <mxCell id="-wmG-a33t5hdWMa0Z5-S-48" value="num_episodes" style="ellipse;whiteSpace=wrap;html=1;align=center;" parent="1" vertex="1">
          <mxGeometry x="55" y="540" width="90" height="40" as="geometry" />
        </mxCell>
        <mxCell id="-wmG-a33t5hdWMa0Z5-S-49" value="num_seasons" style="ellipse;whiteSpace=wrap;html=1;align=center;" parent="1" vertex="1">
          <mxGeometry x="145" y="610" width="100" height="40" as="geometry" />
        </mxCell>
        <mxCell id="-wmG-a33t5hdWMa0Z5-S-50" value="" style="endArrow=none;html=1;rounded=0;entryX=0.5;entryY=1;entryDx=0;entryDy=0;exitX=0;exitY=0.75;exitDx=0;exitDy=0;" parent="1" source="-wmG-a33t5hdWMa0Z5-S-44" target="-wmG-a33t5hdWMa0Z5-S-46" edge="1">
          <mxGeometry width="50" height="50" relative="1" as="geometry">
            <mxPoint x="80" y="455" as="sourcePoint" />
            <mxPoint x="-30" y="485" as="targetPoint" />
          </mxGeometry>
        </mxCell>
        <mxCell id="-wmG-a33t5hdWMa0Z5-S-51" value="" style="endArrow=none;html=1;rounded=0;entryX=1;entryY=0.5;entryDx=0;entryDy=0;exitX=0;exitY=1;exitDx=0;exitDy=0;" parent="1" source="-wmG-a33t5hdWMa0Z5-S-44" target="-wmG-a33t5hdWMa0Z5-S-47" edge="1">
          <mxGeometry width="50" height="50" relative="1" as="geometry">
            <mxPoint x="-70" y="665" as="sourcePoint" />
            <mxPoint x="-165" y="615" as="targetPoint" />
          </mxGeometry>
        </mxCell>
        <mxCell id="-wmG-a33t5hdWMa0Z5-S-52" value="" style="endArrow=none;html=1;rounded=0;entryX=0.5;entryY=1;entryDx=0;entryDy=0;exitX=1;exitY=0.5;exitDx=0;exitDy=0;" parent="1" source="-wmG-a33t5hdWMa0Z5-S-44" target="-wmG-a33t5hdWMa0Z5-S-48" edge="1">
          <mxGeometry width="50" height="50" relative="1" as="geometry">
            <mxPoint x="-45" y="635" as="sourcePoint" />
            <mxPoint x="-95" y="575" as="targetPoint" />
          </mxGeometry>
        </mxCell>
        <mxCell id="-wmG-a33t5hdWMa0Z5-S-53" value="" style="endArrow=none;html=1;rounded=0;entryX=0;entryY=0.5;entryDx=0;entryDy=0;exitX=1;exitY=0.75;exitDx=0;exitDy=0;" parent="1" source="-wmG-a33t5hdWMa0Z5-S-44" target="-wmG-a33t5hdWMa0Z5-S-49" edge="1">
          <mxGeometry width="50" height="50" relative="1" as="geometry">
            <mxPoint x="5" y="635" as="sourcePoint" />
            <mxPoint x="5" y="575" as="targetPoint" />
          </mxGeometry>
        </mxCell>
        <mxCell id="-wmG-a33t5hdWMa0Z5-S-55" value="OSCAR_WINNER" style="whiteSpace=wrap;html=1;align=center;" parent="1" vertex="1">
          <mxGeometry x="-690" y="638" width="100" height="40" as="geometry" />
        </mxCell>
        <mxCell id="-wmG-a33t5hdWMa0Z5-S-56" value="movie_name" style="ellipse;whiteSpace=wrap;html=1;align=center;" parent="1" vertex="1">
          <mxGeometry x="-620" y="540" width="100" height="40" as="geometry" />
        </mxCell>
        <mxCell id="-wmG-a33t5hdWMa0Z5-S-57" value="actor_id" style="ellipse;whiteSpace=wrap;html=1;align=center;" parent="1" vertex="1">
          <mxGeometry x="-797.5" y="545" width="100" height="40" as="geometry" />
        </mxCell>
        <mxCell id="-wmG-a33t5hdWMa0Z5-S-58" value="role" style="ellipse;whiteSpace=wrap;html=1;align=center;" parent="1" vertex="1">
          <mxGeometry x="-500" y="570" width="100" height="40" as="geometry" />
        </mxCell>
        <mxCell id="-wmG-a33t5hdWMa0Z5-S-59" value="year" style="ellipse;whiteSpace=wrap;html=1;align=center;" parent="1" vertex="1">
          <mxGeometry x="-450" y="630" width="100" height="40" as="geometry" />
        </mxCell>
        <mxCell id="-wmG-a33t5hdWMa0Z5-S-60" value="" style="endArrow=none;html=1;rounded=0;entryX=0;entryY=0;entryDx=0;entryDy=0;exitX=0.5;exitY=1;exitDx=0;exitDy=0;" parent="1" source="-wmG-a33t5hdWMa0Z5-S-57" target="-wmG-a33t5hdWMa0Z5-S-55" edge="1">
          <mxGeometry width="50" height="50" relative="1" as="geometry">
            <mxPoint x="-742.5" y="465" as="sourcePoint" />
            <mxPoint x="-852.5" y="495" as="targetPoint" />
          </mxGeometry>
        </mxCell>
        <mxCell id="-wmG-a33t5hdWMa0Z5-S-61" value="" style="endArrow=none;html=1;rounded=0;entryX=1;entryY=0;entryDx=0;entryDy=0;exitX=0.5;exitY=1;exitDx=0;exitDy=0;" parent="1" source="-wmG-a33t5hdWMa0Z5-S-56" target="-wmG-a33t5hdWMa0Z5-S-55" edge="1">
          <mxGeometry width="50" height="50" relative="1" as="geometry">
            <mxPoint x="-727.5" y="605" as="sourcePoint" />
            <mxPoint x="-682.5" y="655" as="targetPoint" />
          </mxGeometry>
        </mxCell>
        <mxCell id="-wmG-a33t5hdWMa0Z5-S-62" value="" style="endArrow=none;html=1;rounded=0;entryX=1;entryY=0.5;entryDx=0;entryDy=0;exitX=0.5;exitY=1;exitDx=0;exitDy=0;" parent="1" source="-wmG-a33t5hdWMa0Z5-S-58" target="-wmG-a33t5hdWMa0Z5-S-55" edge="1">
          <mxGeometry width="50" height="50" relative="1" as="geometry">
            <mxPoint x="-627.5" y="585" as="sourcePoint" />
            <mxPoint x="-632.5" y="655" as="targetPoint" />
          </mxGeometry>
        </mxCell>
        <mxCell id="-wmG-a33t5hdWMa0Z5-S-63" value="" style="endArrow=none;html=1;rounded=0;entryX=1;entryY=1;entryDx=0;entryDy=0;exitX=0.5;exitY=1;exitDx=0;exitDy=0;" parent="1" source="-wmG-a33t5hdWMa0Z5-S-59" target="-wmG-a33t5hdWMa0Z5-S-55" edge="1">
          <mxGeometry width="50" height="50" relative="1" as="geometry">
            <mxPoint x="-517.5" y="595" as="sourcePoint" />
            <mxPoint x="-582.5" y="655" as="targetPoint" />
          </mxGeometry>
        </mxCell>
        <mxCell id="-wmG-a33t5hdWMa0Z5-S-64" value="DIRECTOR" style="whiteSpace=wrap;html=1;align=center;" parent="1" vertex="1">
          <mxGeometry x="515" y="660" width="100" height="40" as="geometry" />
        </mxCell>
        <mxCell id="-wmG-a33t5hdWMa0Z5-S-65" value="id" style="ellipse;whiteSpace=wrap;html=1;align=center;fontStyle=4;" parent="1" vertex="1">
          <mxGeometry x="375" y="260" width="100" height="40" as="geometry" />
        </mxCell>
        <mxCell id="-wmG-a33t5hdWMa0Z5-S-66" value="id" style="ellipse;whiteSpace=wrap;html=1;align=center;fontStyle=4;" parent="1" vertex="1">
          <mxGeometry x="-260" y="560" width="100" height="40" as="geometry" />
        </mxCell>
        <mxCell id="-wmG-a33t5hdWMa0Z5-S-67" value="id" style="ellipse;whiteSpace=wrap;html=1;align=center;fontStyle=4;" parent="1" vertex="1">
          <mxGeometry x="-910" y="585" width="100" height="40" as="geometry" />
        </mxCell>
        <mxCell id="-wmG-a33t5hdWMa0Z5-S-69" value="id" style="ellipse;whiteSpace=wrap;html=1;align=center;fontStyle=4;" parent="1" vertex="1">
          <mxGeometry x="300" y="640" width="100" height="40" as="geometry" />
        </mxCell>
        <mxCell id="-wmG-a33t5hdWMa0Z5-S-73" value="" style="endArrow=none;html=1;rounded=0;entryX=1;entryY=1;entryDx=0;entryDy=0;exitX=-0.005;exitY=0.903;exitDx=0;exitDy=0;exitPerimeter=0;" parent="1" source="-wmG-a33t5hdWMa0Z5-S-44" target="-wmG-a33t5hdWMa0Z5-S-66" edge="1">
          <mxGeometry width="50" height="50" relative="1" as="geometry">
            <mxPoint x="-55" y="665" as="sourcePoint" />
            <mxPoint x="-165" y="615" as="targetPoint" />
          </mxGeometry>
        </mxCell>
        <mxCell id="-wmG-a33t5hdWMa0Z5-S-74" value="" style="endArrow=none;html=1;rounded=0;entryX=0.643;entryY=0.958;entryDx=0;entryDy=0;exitX=0;exitY=0.5;exitDx=0;exitDy=0;entryPerimeter=0;" parent="1" source="-wmG-a33t5hdWMa0Z5-S-64" target="-wmG-a33t5hdWMa0Z5-S-69" edge="1">
          <mxGeometry width="50" height="50" relative="1" as="geometry">
            <mxPoint x="540" y="470" as="sourcePoint" />
            <mxPoint x="430" y="420" as="targetPoint" />
          </mxGeometry>
        </mxCell>
        <mxCell id="-wmG-a33t5hdWMa0Z5-S-75" value="" style="endArrow=none;html=1;rounded=0;exitX=1;exitY=0.5;exitDx=0;exitDy=0;entryX=0;entryY=1;entryDx=0;entryDy=0;" parent="1" source="-wmG-a33t5hdWMa0Z5-S-65" target="-wmG-a33t5hdWMa0Z5-S-35" edge="1">
          <mxGeometry width="50" height="50" relative="1" as="geometry">
            <mxPoint x="455" y="210" as="sourcePoint" />
            <mxPoint x="525" y="240" as="targetPoint" />
          </mxGeometry>
        </mxCell>
        <mxCell id="-wmG-a33t5hdWMa0Z5-S-76" value="" style="endArrow=none;html=1;rounded=0;entryX=0;entryY=1;entryDx=0;entryDy=0;exitX=0.5;exitY=1;exitDx=0;exitDy=0;" parent="1" source="-wmG-a33t5hdWMa0Z5-S-67" target="-wmG-a33t5hdWMa0Z5-S-55" edge="1">
          <mxGeometry width="50" height="50" relative="1" as="geometry">
            <mxPoint x="-742.5" y="615" as="sourcePoint" />
            <mxPoint x="-682.5" y="655" as="targetPoint" />
          </mxGeometry>
        </mxCell>
        <mxCell id="-wmG-a33t5hdWMa0Z5-S-77" value="id" style="ellipse;whiteSpace=wrap;html=1;align=center;fontStyle=4;" parent="1" vertex="1">
          <mxGeometry x="-570" y="-110" width="100" height="40" as="geometry" />
        </mxCell>
        <mxCell id="-wmG-a33t5hdWMa0Z5-S-78" value="" style="endArrow=none;html=1;rounded=0;exitX=0;exitY=1;exitDx=0;exitDy=0;entryX=0.5;entryY=1;entryDx=0;entryDy=0;" parent="1" source="-wmG-a33t5hdWMa0Z5-S-27" target="-wmG-a33t5hdWMa0Z5-S-77" edge="1">
          <mxGeometry width="50" height="50" relative="1" as="geometry">
            <mxPoint x="-380" y="-60" as="sourcePoint" />
            <mxPoint x="-430" y="-100" as="targetPoint" />
          </mxGeometry>
        </mxCell>
        <mxCell id="-wmG-a33t5hdWMa0Z5-S-79" value="first_name" style="ellipse;whiteSpace=wrap;html=1;align=center;" parent="1" vertex="1">
          <mxGeometry x="335" y="570" width="100" height="40" as="geometry" />
        </mxCell>
        <mxCell id="-wmG-a33t5hdWMa0Z5-S-80" value="last_name" style="ellipse;whiteSpace=wrap;html=1;align=center;" parent="1" vertex="1">
          <mxGeometry x="415" y="530" width="100" height="40" as="geometry" />
        </mxCell>
        <mxCell id="-wmG-a33t5hdWMa0Z5-S-81" value="genre" style="ellipse;whiteSpace=wrap;html=1;align=center;" parent="1" vertex="1">
          <mxGeometry x="680" y="540" width="100" height="40" as="geometry" />
        </mxCell>
        <mxCell id="-wmG-a33t5hdWMa0Z5-S-82" value="expertise" style="ellipse;whiteSpace=wrap;html=1;align=center;" parent="1" vertex="1">
          <mxGeometry x="750" y="585" width="100" height="40" as="geometry" />
        </mxCell>
        <mxCell id="-wmG-a33t5hdWMa0Z5-S-83" value="" style="endArrow=none;html=1;rounded=0;entryX=0.388;entryY=0.994;entryDx=0;entryDy=0;exitX=0;exitY=0;exitDx=0;exitDy=0;entryPerimeter=0;" parent="1" source="-wmG-a33t5hdWMa0Z5-S-64" target="-wmG-a33t5hdWMa0Z5-S-79" edge="1">
          <mxGeometry width="50" height="50" relative="1" as="geometry">
            <mxPoint x="510" y="690" as="sourcePoint" />
            <mxPoint x="439" y="668" as="targetPoint" />
          </mxGeometry>
        </mxCell>
        <mxCell id="-wmG-a33t5hdWMa0Z5-S-84" value="" style="endArrow=none;html=1;rounded=0;entryX=0.5;entryY=1;entryDx=0;entryDy=0;exitX=0.5;exitY=0;exitDx=0;exitDy=0;" parent="1" source="-wmG-a33t5hdWMa0Z5-S-64" target="-wmG-a33t5hdWMa0Z5-S-80" edge="1">
          <mxGeometry width="50" height="50" relative="1" as="geometry">
            <mxPoint x="510" y="670" as="sourcePoint" />
            <mxPoint x="469" y="610" as="targetPoint" />
          </mxGeometry>
        </mxCell>
        <mxCell id="-wmG-a33t5hdWMa0Z5-S-86" value="" style="endArrow=none;html=1;rounded=0;entryX=0.5;entryY=1;entryDx=0;entryDy=0;exitX=1;exitY=0;exitDx=0;exitDy=0;" parent="1" source="-wmG-a33t5hdWMa0Z5-S-64" target="-wmG-a33t5hdWMa0Z5-S-81" edge="1">
          <mxGeometry width="50" height="50" relative="1" as="geometry">
            <mxPoint x="560" y="670" as="sourcePoint" />
            <mxPoint x="590" y="600" as="targetPoint" />
          </mxGeometry>
        </mxCell>
        <mxCell id="-wmG-a33t5hdWMa0Z5-S-87" value="" style="endArrow=none;html=1;rounded=0;entryX=0;entryY=1;entryDx=0;entryDy=0;exitX=1;exitY=0.25;exitDx=0;exitDy=0;" parent="1" source="-wmG-a33t5hdWMa0Z5-S-64" target="-wmG-a33t5hdWMa0Z5-S-82" edge="1">
          <mxGeometry width="50" height="50" relative="1" as="geometry">
            <mxPoint x="610" y="670" as="sourcePoint" />
            <mxPoint x="695" y="620" as="targetPoint" />
            <Array as="points" />
          </mxGeometry>
        </mxCell>
        <mxCell id="-wmG-a33t5hdWMa0Z5-S-97" value="CRITIC" style="whiteSpace=wrap;html=1;align=center;" parent="1" vertex="1">
          <mxGeometry x="-263.75" y="-310" width="100" height="40" as="geometry" />
        </mxCell>
        <mxCell id="-wmG-a33t5hdWMa0Z5-S-98" value="id" style="ellipse;whiteSpace=wrap;html=1;align=center;fontStyle=4;" parent="1" vertex="1">
          <mxGeometry x="-425" y="-250" width="100" height="40" as="geometry" />
        </mxCell>
        <mxCell id="-wmG-a33t5hdWMa0Z5-S-99" value="first_name" style="ellipse;whiteSpace=wrap;html=1;align=center;" parent="1" vertex="1">
          <mxGeometry x="-435" y="-400" width="100" height="40" as="geometry" />
        </mxCell>
        <mxCell id="-wmG-a33t5hdWMa0Z5-S-100" value="last_name" style="ellipse;whiteSpace=wrap;html=1;align=center;" parent="1" vertex="1">
          <mxGeometry x="-305" y="-440" width="100" height="40" as="geometry" />
        </mxCell>
        <mxCell id="-wmG-a33t5hdWMa0Z5-S-101" value="username" style="ellipse;whiteSpace=wrap;html=1;align=center;" parent="1" vertex="1">
          <mxGeometry x="-165" y="-440" width="100" height="40" as="geometry" />
        </mxCell>
        <mxCell id="-wmG-a33t5hdWMa0Z5-S-102" value="password" style="ellipse;whiteSpace=wrap;html=1;align=center;" parent="1" vertex="1">
          <mxGeometry x="-120" y="-260" width="100" height="40" as="geometry" />
        </mxCell>
        <mxCell id="-wmG-a33t5hdWMa0Z5-S-104" value="" style="endArrow=none;html=1;rounded=0;entryX=0.5;entryY=1;entryDx=0;entryDy=0;exitX=0;exitY=1;exitDx=0;exitDy=0;" parent="1" source="-wmG-a33t5hdWMa0Z5-S-109" target="-wmG-a33t5hdWMa0Z5-S-117" edge="1">
          <mxGeometry width="50" height="50" relative="1" as="geometry">
            <mxPoint x="505" y="-260" as="sourcePoint" />
            <mxPoint x="396.25" y="-310" as="targetPoint" />
          </mxGeometry>
        </mxCell>
        <mxCell id="-wmG-a33t5hdWMa0Z5-S-105" value="" style="endArrow=none;html=1;rounded=0;entryX=0.25;entryY=0;entryDx=0;entryDy=0;exitX=0.5;exitY=1;exitDx=0;exitDy=0;" parent="1" source="-wmG-a33t5hdWMa0Z5-S-99" target="-wmG-a33t5hdWMa0Z5-S-97" edge="1">
          <mxGeometry width="50" height="50" relative="1" as="geometry">
            <mxPoint x="-252.5" y="-490" as="sourcePoint" />
            <mxPoint x="-322.5" y="-530" as="targetPoint" />
          </mxGeometry>
        </mxCell>
        <mxCell id="-wmG-a33t5hdWMa0Z5-S-106" value="" style="endArrow=none;html=1;rounded=0;entryX=0.5;entryY=0;entryDx=0;entryDy=0;exitX=0.5;exitY=1;exitDx=0;exitDy=0;" parent="1" source="-wmG-a33t5hdWMa0Z5-S-100" target="-wmG-a33t5hdWMa0Z5-S-97" edge="1">
          <mxGeometry width="50" height="50" relative="1" as="geometry">
            <mxPoint x="-252.5" y="-490" as="sourcePoint" />
            <mxPoint x="-322.5" y="-530" as="targetPoint" />
          </mxGeometry>
        </mxCell>
        <mxCell id="-wmG-a33t5hdWMa0Z5-S-107" value="" style="endArrow=none;html=1;rounded=0;entryX=1;entryY=0;entryDx=0;entryDy=0;exitX=0.41;exitY=1.017;exitDx=0;exitDy=0;exitPerimeter=0;" parent="1" source="-wmG-a33t5hdWMa0Z5-S-101" target="-wmG-a33t5hdWMa0Z5-S-97" edge="1">
          <mxGeometry width="50" height="50" relative="1" as="geometry">
            <mxPoint x="-192.5" y="-390" as="sourcePoint" />
            <mxPoint x="-203.5" y="-300" as="targetPoint" />
          </mxGeometry>
        </mxCell>
        <mxCell id="-wmG-a33t5hdWMa0Z5-S-108" value="" style="endArrow=none;html=1;rounded=0;entryX=1;entryY=1;entryDx=0;entryDy=0;exitX=0;exitY=0.5;exitDx=0;exitDy=0;" parent="1" source="-wmG-a33t5hdWMa0Z5-S-102" target="-wmG-a33t5hdWMa0Z5-S-97" edge="1">
          <mxGeometry width="50" height="50" relative="1" as="geometry">
            <mxPoint x="-101.5" y="-359" as="sourcePoint" />
            <mxPoint x="-153.5" y="-300" as="targetPoint" />
          </mxGeometry>
        </mxCell>
        <mxCell id="-wmG-a33t5hdWMa0Z5-S-109" value="FILM_CRITIC" style="whiteSpace=wrap;html=1;align=center;" parent="1" vertex="1">
          <mxGeometry x="515" y="-312" width="100" height="40" as="geometry" />
        </mxCell>
        <mxCell id="-wmG-a33t5hdWMa0Z5-S-110" value="" style="endArrow=none;html=1;rounded=0;entryX=1;entryY=0.5;entryDx=0;entryDy=0;exitX=0.5;exitY=1;exitDx=0;exitDy=0;" parent="1" source="-wmG-a33t5hdWMa0Z5-S-111" target="-wmG-a33t5hdWMa0Z5-S-109" edge="1">
          <mxGeometry width="50" height="50" relative="1" as="geometry">
            <mxPoint x="695" y="-380" as="sourcePoint" />
            <mxPoint x="634" y="-420" as="targetPoint" />
          </mxGeometry>
        </mxCell>
        <mxCell id="-wmG-a33t5hdWMa0Z5-S-111" value="film_id" style="ellipse;whiteSpace=wrap;html=1;align=center;" parent="1" vertex="1">
          <mxGeometry x="660" y="-360" width="100" height="40" as="geometry" />
        </mxCell>
        <mxCell id="-wmG-a33t5hdWMa0Z5-S-112" value="critic_id" style="ellipse;whiteSpace=wrap;html=1;align=center;" parent="1" vertex="1">
          <mxGeometry x="560" y="-400" width="100" height="40" as="geometry" />
        </mxCell>
        <mxCell id="-wmG-a33t5hdWMa0Z5-S-113" value="" style="endArrow=none;html=1;rounded=0;entryX=0.5;entryY=0;entryDx=0;entryDy=0;exitX=0.5;exitY=1;exitDx=0;exitDy=0;" parent="1" source="-wmG-a33t5hdWMa0Z5-S-112" target="-wmG-a33t5hdWMa0Z5-S-109" edge="1">
          <mxGeometry width="50" height="50" relative="1" as="geometry">
            <mxPoint x="695" y="-330" as="sourcePoint" />
            <mxPoint x="645" y="-290" as="targetPoint" />
          </mxGeometry>
        </mxCell>
        <mxCell id="-wmG-a33t5hdWMa0Z5-S-114" value="rating" style="ellipse;whiteSpace=wrap;html=1;align=center;" parent="1" vertex="1">
          <mxGeometry x="430" y="-380" width="100" height="40" as="geometry" />
        </mxCell>
        <mxCell id="-wmG-a33t5hdWMa0Z5-S-115" value="" style="endArrow=none;html=1;rounded=0;exitX=0.5;exitY=1;exitDx=0;exitDy=0;entryX=0;entryY=0;entryDx=0;entryDy=0;" parent="1" source="-wmG-a33t5hdWMa0Z5-S-114" target="-wmG-a33t5hdWMa0Z5-S-109" edge="1">
          <mxGeometry width="50" height="50" relative="1" as="geometry">
            <mxPoint x="595" y="-340" as="sourcePoint" />
            <mxPoint x="525" y="-300" as="targetPoint" />
          </mxGeometry>
        </mxCell>
        <mxCell id="-wmG-a33t5hdWMa0Z5-S-117" value="id" style="ellipse;whiteSpace=wrap;html=1;align=center;fontStyle=4;" parent="1" vertex="1">
          <mxGeometry x="390" y="-240" width="100" height="40" as="geometry" />
        </mxCell>
        <mxCell id="-wmG-a33t5hdWMa0Z5-S-118" value="" style="endArrow=none;html=1;rounded=0;entryX=0;entryY=1;entryDx=0;entryDy=0;exitX=1;exitY=0;exitDx=0;exitDy=0;" parent="1" source="-wmG-a33t5hdWMa0Z5-S-98" target="-wmG-a33t5hdWMa0Z5-S-97" edge="1">
          <mxGeometry width="50" height="50" relative="1" as="geometry">
            <mxPoint x="-303.5" y="-380" as="sourcePoint" />
            <mxPoint x="-228.5" y="-300" as="targetPoint" />
          </mxGeometry>
        </mxCell>
        <mxCell id="-wmG-a33t5hdWMa0Z5-S-120" value="ACTOR_CRITIQUE" style="whiteSpace=wrap;html=1;align=center;" parent="1" vertex="1">
          <mxGeometry x="-870" y="-317" width="120" height="40" as="geometry" />
        </mxCell>
        <mxCell id="-wmG-a33t5hdWMa0Z5-S-121" value="critic_id" style="ellipse;whiteSpace=wrap;html=1;align=center;" parent="1" vertex="1">
          <mxGeometry x="-965" y="-427" width="100" height="40" as="geometry" />
        </mxCell>
        <mxCell id="-wmG-a33t5hdWMa0Z5-S-122" value="movie_id" style="ellipse;whiteSpace=wrap;html=1;align=center;" parent="1" vertex="1">
          <mxGeometry x="-840" y="-427" width="100" height="40" as="geometry" />
        </mxCell>
        <mxCell id="-wmG-a33t5hdWMa0Z5-S-123" value="actor_id" style="ellipse;whiteSpace=wrap;html=1;align=center;" parent="1" vertex="1">
          <mxGeometry x="-720" y="-397" width="100" height="40" as="geometry" />
        </mxCell>
        <mxCell id="-wmG-a33t5hdWMa0Z5-S-124" value="id" style="ellipse;whiteSpace=wrap;html=1;align=center;fontStyle=4;" parent="1" vertex="1">
          <mxGeometry x="-1057.5" y="-377" width="100" height="40" as="geometry" />
        </mxCell>
        <mxCell id="-wmG-a33t5hdWMa0Z5-S-125" value="acting_grade" style="ellipse;whiteSpace=wrap;html=1;align=center;" parent="1" vertex="1">
          <mxGeometry x="-690" y="-230" width="100" height="40" as="geometry" />
        </mxCell>
        <mxCell id="-wmG-a33t5hdWMa0Z5-S-126" value="expression_grade" style="ellipse;whiteSpace=wrap;html=1;align=center;" parent="1" vertex="1">
          <mxGeometry x="-1090" y="-309" width="115" height="40" as="geometry" />
        </mxCell>
        <mxCell id="-wmG-a33t5hdWMa0Z5-S-127" value="naturalness_grade" style="ellipse;whiteSpace=wrap;html=1;align=center;" parent="1" vertex="1">
          <mxGeometry x="-1072.5" y="-247" width="115" height="40" as="geometry" />
        </mxCell>
        <mxCell id="-wmG-a33t5hdWMa0Z5-S-128" value="devotion_grade" style="ellipse;whiteSpace=wrap;html=1;align=center;rotation=0;" parent="1" vertex="1">
          <mxGeometry x="-937.5" y="-227" width="115" height="40" as="geometry" />
        </mxCell>
        <mxCell id="-wmG-a33t5hdWMa0Z5-S-129" value="" style="endArrow=none;html=1;rounded=0;entryX=0.5;entryY=1;entryDx=0;entryDy=0;exitX=0;exitY=0.5;exitDx=0;exitDy=0;" parent="1" source="-wmG-a33t5hdWMa0Z5-S-120" target="-wmG-a33t5hdWMa0Z5-S-124" edge="1">
          <mxGeometry width="50" height="50" relative="1" as="geometry">
            <mxPoint x="-887.5" y="-487" as="sourcePoint" />
            <mxPoint x="-1012.5" y="-517" as="targetPoint" />
          </mxGeometry>
        </mxCell>
        <mxCell id="-wmG-a33t5hdWMa0Z5-S-130" value="" style="endArrow=none;html=1;rounded=0;entryX=0.5;entryY=1;entryDx=0;entryDy=0;exitX=0.5;exitY=1;exitDx=0;exitDy=0;" parent="1" source="-wmG-a33t5hdWMa0Z5-S-120" target="-wmG-a33t5hdWMa0Z5-S-126" edge="1">
          <mxGeometry width="50" height="50" relative="1" as="geometry">
            <mxPoint x="-877.5" y="-267" as="sourcePoint" />
            <mxPoint x="-997.5" y="-307" as="targetPoint" />
          </mxGeometry>
        </mxCell>
        <mxCell id="-wmG-a33t5hdWMa0Z5-S-131" value="" style="endArrow=none;html=1;rounded=0;entryX=0.5;entryY=1;entryDx=0;entryDy=0;exitX=0.25;exitY=0;exitDx=0;exitDy=0;" parent="1" source="-wmG-a33t5hdWMa0Z5-S-120" target="-wmG-a33t5hdWMa0Z5-S-121" edge="1">
          <mxGeometry width="50" height="50" relative="1" as="geometry">
            <mxPoint x="-887.5" y="-297" as="sourcePoint" />
            <mxPoint x="-997.5" y="-327" as="targetPoint" />
          </mxGeometry>
        </mxCell>
        <mxCell id="-wmG-a33t5hdWMa0Z5-S-132" value="" style="endArrow=none;html=1;rounded=0;entryX=0.5;entryY=1;entryDx=0;entryDy=0;exitX=0.75;exitY=0;exitDx=0;exitDy=0;" parent="1" source="-wmG-a33t5hdWMa0Z5-S-120" target="-wmG-a33t5hdWMa0Z5-S-122" edge="1">
          <mxGeometry width="50" height="50" relative="1" as="geometry">
            <mxPoint x="-877.5" y="-287" as="sourcePoint" />
            <mxPoint x="-987.5" y="-317" as="targetPoint" />
          </mxGeometry>
        </mxCell>
        <mxCell id="-wmG-a33t5hdWMa0Z5-S-133" value="" style="endArrow=none;html=1;rounded=0;entryX=0.5;entryY=1;entryDx=0;entryDy=0;exitX=1;exitY=0.5;exitDx=0;exitDy=0;" parent="1" source="-wmG-a33t5hdWMa0Z5-S-120" target="-wmG-a33t5hdWMa0Z5-S-123" edge="1">
          <mxGeometry width="50" height="50" relative="1" as="geometry">
            <mxPoint x="-797.5" y="-317" as="sourcePoint" />
            <mxPoint x="-792.5" y="-357" as="targetPoint" />
          </mxGeometry>
        </mxCell>
        <mxCell id="-wmG-a33t5hdWMa0Z5-S-134" value="" style="endArrow=none;html=1;rounded=0;exitX=1;exitY=1;exitDx=0;exitDy=0;entryX=0;entryY=0;entryDx=0;entryDy=0;" parent="1" source="-wmG-a33t5hdWMa0Z5-S-120" target="-wmG-a33t5hdWMa0Z5-S-125" edge="1">
          <mxGeometry width="50" height="50" relative="1" as="geometry">
            <mxPoint x="-767.5" y="-297" as="sourcePoint" />
            <mxPoint x="-687.5" y="-287" as="targetPoint" />
          </mxGeometry>
        </mxCell>
        <mxCell id="-wmG-a33t5hdWMa0Z5-S-135" value="" style="endArrow=none;html=1;rounded=0;entryX=0.5;entryY=0;entryDx=0;entryDy=0;exitX=0.25;exitY=1;exitDx=0;exitDy=0;" parent="1" source="-wmG-a33t5hdWMa0Z5-S-120" target="-wmG-a33t5hdWMa0Z5-S-127" edge="1">
          <mxGeometry width="50" height="50" relative="1" as="geometry">
            <mxPoint x="-857.5" y="-277" as="sourcePoint" />
            <mxPoint x="-1012.5" y="-277" as="targetPoint" />
          </mxGeometry>
        </mxCell>
        <mxCell id="-wmG-a33t5hdWMa0Z5-S-136" value="" style="endArrow=none;html=1;rounded=0;entryX=0.5;entryY=0;entryDx=0;entryDy=0;exitX=0.5;exitY=1;exitDx=0;exitDy=0;" parent="1" source="-wmG-a33t5hdWMa0Z5-S-120" target="-wmG-a33t5hdWMa0Z5-S-128" edge="1">
          <mxGeometry width="50" height="50" relative="1" as="geometry">
            <mxPoint x="-857.5" y="-277" as="sourcePoint" />
            <mxPoint x="-1004.5" y="-247" as="targetPoint" />
          </mxGeometry>
        </mxCell>
        <mxCell id="Br79V26ad8sniBMHuB9Y-2" value="has" style="shape=rhombus;perimeter=rhombusPerimeter;whiteSpace=wrap;html=1;align=center;" vertex="1" parent="1">
          <mxGeometry x="-410" y="208" width="120" height="60" as="geometry" />
        </mxCell>
        <mxCell id="Br79V26ad8sniBMHuB9Y-3" value="" style="shape=link;html=1;rounded=0;entryX=0;entryY=0.5;entryDx=0;entryDy=0;" edge="1" parent="1" source="Br79V26ad8sniBMHuB9Y-2" target="-wmG-a33t5hdWMa0Z5-S-1">
          <mxGeometry relative="1" as="geometry">
            <mxPoint x="-285" y="230" as="sourcePoint" />
            <mxPoint x="-125" y="230" as="targetPoint" />
          </mxGeometry>
        </mxCell>
        <mxCell id="Br79V26ad8sniBMHuB9Y-5" value="N" style="resizable=0;html=1;whiteSpace=wrap;align=right;verticalAlign=bottom;" connectable="0" vertex="1" parent="Br79V26ad8sniBMHuB9Y-3">
          <mxGeometry x="1" relative="1" as="geometry">
            <mxPoint x="-15" as="offset" />
          </mxGeometry>
        </mxCell>
        <mxCell id="Br79V26ad8sniBMHuB9Y-6" value="is" style="shape=rhombus;perimeter=rhombusPerimeter;whiteSpace=wrap;html=1;align=center;" vertex="1" parent="1">
          <mxGeometry x="215" y="220" width="120" height="60" as="geometry" />
        </mxCell>
        <mxCell id="Br79V26ad8sniBMHuB9Y-7" value="" style="shape=link;html=1;rounded=0;entryX=0;entryY=0.5;entryDx=0;entryDy=0;exitX=1;exitY=0.5;exitDx=0;exitDy=0;" edge="1" parent="1" source="-wmG-a33t5hdWMa0Z5-S-14" target="Br79V26ad8sniBMHuB9Y-2">
          <mxGeometry relative="1" as="geometry">
            <mxPoint x="-280" y="250" as="sourcePoint" />
            <mxPoint x="-50" y="250" as="targetPoint" />
          </mxGeometry>
        </mxCell>
        <mxCell id="Br79V26ad8sniBMHuB9Y-8" value="M" style="resizable=0;html=1;whiteSpace=wrap;align=left;verticalAlign=bottom;" connectable="0" vertex="1" parent="Br79V26ad8sniBMHuB9Y-7">
          <mxGeometry x="-1" relative="1" as="geometry" />
        </mxCell>
        <mxCell id="Br79V26ad8sniBMHuB9Y-10" value="" style="shape=link;html=1;rounded=0;entryX=0;entryY=0.5;entryDx=0;entryDy=0;exitX=1;exitY=0.5;exitDx=0;exitDy=0;" edge="1" parent="1" source="Br79V26ad8sniBMHuB9Y-6" target="-wmG-a33t5hdWMa0Z5-S-35">
          <mxGeometry relative="1" as="geometry">
            <mxPoint x="-280" y="250" as="sourcePoint" />
            <mxPoint x="-50" y="250" as="targetPoint" />
          </mxGeometry>
        </mxCell>
        <mxCell id="Br79V26ad8sniBMHuB9Y-11" value="M" style="resizable=0;html=1;whiteSpace=wrap;align=right;verticalAlign=bottom;" connectable="0" vertex="1" parent="Br79V26ad8sniBMHuB9Y-10">
          <mxGeometry x="1" relative="1" as="geometry" />
        </mxCell>
        <mxCell id="Br79V26ad8sniBMHuB9Y-12" value="" style="endArrow=none;html=1;rounded=0;entryX=0;entryY=0.5;entryDx=0;entryDy=0;" edge="1" parent="1" target="Br79V26ad8sniBMHuB9Y-6">
          <mxGeometry width="50" height="50" relative="1" as="geometry">
            <mxPoint x="40" y="250" as="sourcePoint" />
            <mxPoint x="150" y="390" as="targetPoint" />
          </mxGeometry>
        </mxCell>
        <mxCell id="Br79V26ad8sniBMHuB9Y-13" value="N" style="text;html=1;align=center;verticalAlign=middle;resizable=0;points=[];autosize=1;strokeColor=none;fillColor=none;" vertex="1" parent="1">
          <mxGeometry x="35" y="228" width="30" height="30" as="geometry" />
        </mxCell>
        <mxCell id="Br79V26ad8sniBMHuB9Y-16" value="payment" style="ellipse;whiteSpace=wrap;html=1;align=center;" vertex="1" parent="1">
          <mxGeometry x="770" y="643" width="100" height="40" as="geometry" />
        </mxCell>
        <mxCell id="Br79V26ad8sniBMHuB9Y-17" value="" style="endArrow=none;html=1;rounded=0;entryX=0;entryY=0.5;entryDx=0;entryDy=0;exitX=1;exitY=0.5;exitDx=0;exitDy=0;" edge="1" parent="1" source="-wmG-a33t5hdWMa0Z5-S-64" target="Br79V26ad8sniBMHuB9Y-16">
          <mxGeometry width="50" height="50" relative="1" as="geometry">
            <mxPoint x="610" y="710" as="sourcePoint" />
            <mxPoint x="700" y="654" as="targetPoint" />
          </mxGeometry>
        </mxCell>
        <mxCell id="Br79V26ad8sniBMHuB9Y-19" value="is" style="shape=rhombus;perimeter=rhombusPerimeter;whiteSpace=wrap;html=1;align=center;" vertex="1" parent="1">
          <mxGeometry x="-70" y="410" width="120" height="60" as="geometry" />
        </mxCell>
        <mxCell id="Br79V26ad8sniBMHuB9Y-20" value="" style="endArrow=none;html=1;rounded=0;entryX=0.5;entryY=0;entryDx=0;entryDy=0;exitX=0.5;exitY=1;exitDx=0;exitDy=0;" edge="1" parent="1" source="-wmG-a33t5hdWMa0Z5-S-1" target="Br79V26ad8sniBMHuB9Y-19">
          <mxGeometry width="50" height="50" relative="1" as="geometry">
            <mxPoint x="50" y="260" as="sourcePoint" />
            <mxPoint x="225" y="260" as="targetPoint" />
          </mxGeometry>
        </mxCell>
        <mxCell id="Br79V26ad8sniBMHuB9Y-21" value="" style="endArrow=none;html=1;rounded=0;entryX=0.5;entryY=1;entryDx=0;entryDy=0;exitX=0.5;exitY=0;exitDx=0;exitDy=0;" edge="1" parent="1" source="-wmG-a33t5hdWMa0Z5-S-44" target="Br79V26ad8sniBMHuB9Y-19">
          <mxGeometry width="50" height="50" relative="1" as="geometry">
            <mxPoint y="270" as="sourcePoint" />
            <mxPoint y="420" as="targetPoint" />
          </mxGeometry>
        </mxCell>
        <mxCell id="Br79V26ad8sniBMHuB9Y-22" value="directed" style="shape=rhombus;perimeter=rhombusPerimeter;whiteSpace=wrap;html=1;align=center;" vertex="1" parent="1">
          <mxGeometry x="505" y="440" width="120" height="60" as="geometry" />
        </mxCell>
        <mxCell id="Br79V26ad8sniBMHuB9Y-23" value="" style="shape=link;html=1;rounded=0;entryX=0.5;entryY=1;entryDx=0;entryDy=0;exitX=0.5;exitY=0;exitDx=0;exitDy=0;" edge="1" parent="1" source="Br79V26ad8sniBMHuB9Y-22" target="-wmG-a33t5hdWMa0Z5-S-35">
          <mxGeometry relative="1" as="geometry">
            <mxPoint x="345" y="260" as="sourcePoint" />
            <mxPoint x="525" y="260" as="targetPoint" />
          </mxGeometry>
        </mxCell>
        <mxCell id="Br79V26ad8sniBMHuB9Y-24" value="1" style="resizable=0;html=1;whiteSpace=wrap;align=right;verticalAlign=bottom;" connectable="0" vertex="1" parent="Br79V26ad8sniBMHuB9Y-23">
          <mxGeometry x="1" relative="1" as="geometry">
            <mxPoint x="-5" y="21" as="offset" />
          </mxGeometry>
        </mxCell>
        <mxCell id="Br79V26ad8sniBMHuB9Y-25" value="" style="shape=link;html=1;rounded=0;entryX=0.5;entryY=0;entryDx=0;entryDy=0;exitX=0.5;exitY=1;exitDx=0;exitDy=0;" edge="1" parent="1" source="Br79V26ad8sniBMHuB9Y-22" target="-wmG-a33t5hdWMa0Z5-S-64">
          <mxGeometry relative="1" as="geometry">
            <mxPoint x="570" y="490" as="sourcePoint" />
            <mxPoint x="575" y="280" as="targetPoint" />
          </mxGeometry>
        </mxCell>
        <mxCell id="Br79V26ad8sniBMHuB9Y-26" value="M" style="resizable=0;html=1;whiteSpace=wrap;align=right;verticalAlign=bottom;" connectable="0" vertex="1" parent="Br79V26ad8sniBMHuB9Y-25">
          <mxGeometry x="1" relative="1" as="geometry">
            <mxPoint x="-5" y="-10" as="offset" />
          </mxGeometry>
        </mxCell>
        <mxCell id="Br79V26ad8sniBMHuB9Y-27" value="is" style="shape=rhombus;perimeter=rhombusPerimeter;whiteSpace=wrap;html=1;align=center;" vertex="1" parent="1">
          <mxGeometry x="-700" y="420" width="120" height="60" as="geometry" />
        </mxCell>
        <mxCell id="Br79V26ad8sniBMHuB9Y-28" value="" style="shape=link;html=1;rounded=0;entryX=0.5;entryY=1;entryDx=0;entryDy=0;exitX=0.5;exitY=0;exitDx=0;exitDy=0;" edge="1" parent="1" source="-wmG-a33t5hdWMa0Z5-S-55" target="Br79V26ad8sniBMHuB9Y-27">
          <mxGeometry relative="1" as="geometry">
            <mxPoint x="-660" y="608" as="sourcePoint" />
            <mxPoint x="-660" y="446" as="targetPoint" />
          </mxGeometry>
        </mxCell>
        <mxCell id="Br79V26ad8sniBMHuB9Y-29" value="1" style="resizable=0;html=1;whiteSpace=wrap;align=right;verticalAlign=bottom;" connectable="0" vertex="1" parent="Br79V26ad8sniBMHuB9Y-28">
          <mxGeometry x="1" relative="1" as="geometry">
            <mxPoint x="20" y="-200" as="offset" />
          </mxGeometry>
        </mxCell>
        <mxCell id="Br79V26ad8sniBMHuB9Y-30" value="" style="endArrow=none;html=1;rounded=0;entryX=0.5;entryY=1;entryDx=0;entryDy=0;" edge="1" parent="1" target="-wmG-a33t5hdWMa0Z5-S-14">
          <mxGeometry width="50" height="50" relative="1" as="geometry">
            <mxPoint x="-640" y="430" as="sourcePoint" />
            <mxPoint y="480" as="targetPoint" />
          </mxGeometry>
        </mxCell>
        <mxCell id="Br79V26ad8sniBMHuB9Y-31" value="M" style="text;html=1;align=center;verticalAlign=middle;resizable=0;points=[];autosize=1;strokeColor=none;fillColor=none;" vertex="1" parent="1">
          <mxGeometry x="-635" y="608" width="30" height="30" as="geometry" />
        </mxCell>
        <mxCell id="Br79V26ad8sniBMHuB9Y-34" value="has" style="shape=rhombus;perimeter=rhombusPerimeter;whiteSpace=wrap;html=1;align=center;" vertex="1" parent="1">
          <mxGeometry x="-1030" y="208" width="120" height="60" as="geometry" />
        </mxCell>
        <mxCell id="Br79V26ad8sniBMHuB9Y-35" value="movie_id" style="ellipse;whiteSpace=wrap;html=1;align=center;" vertex="1" parent="1">
          <mxGeometry x="-460" y="150" width="100" height="40" as="geometry" />
        </mxCell>
        <mxCell id="Br79V26ad8sniBMHuB9Y-36" value="" style="endArrow=none;html=1;rounded=0;exitX=0.5;exitY=1;exitDx=0;exitDy=0;entryX=1;entryY=0;entryDx=0;entryDy=0;" edge="1" parent="1" source="Br79V26ad8sniBMHuB9Y-35" target="-wmG-a33t5hdWMa0Z5-S-14">
          <mxGeometry width="50" height="50" relative="1" as="geometry">
            <mxPoint x="-501" y="160" as="sourcePoint" />
            <mxPoint x="-580" y="230" as="targetPoint" />
          </mxGeometry>
        </mxCell>
        <mxCell id="Br79V26ad8sniBMHuB9Y-38" value="film_id" style="ellipse;whiteSpace=wrap;html=1;align=center;" vertex="1" parent="1">
          <mxGeometry x="570" y="530" width="100" height="40" as="geometry" />
        </mxCell>
        <mxCell id="Br79V26ad8sniBMHuB9Y-39" value="" style="endArrow=none;html=1;rounded=0;entryX=0.5;entryY=1;entryDx=0;entryDy=0;exitX=0.75;exitY=0;exitDx=0;exitDy=0;" edge="1" parent="1" source="-wmG-a33t5hdWMa0Z5-S-64" target="Br79V26ad8sniBMHuB9Y-38">
          <mxGeometry width="50" height="50" relative="1" as="geometry">
            <mxPoint x="625" y="670" as="sourcePoint" />
            <mxPoint x="720" y="600" as="targetPoint" />
          </mxGeometry>
        </mxCell>
        <mxCell id="Br79V26ad8sniBMHuB9Y-45" value="" style="endArrow=none;html=1;rounded=0;entryX=1;entryY=0.75;entryDx=0;entryDy=0;exitX=0;exitY=0.5;exitDx=0;exitDy=0;" edge="1" parent="1" source="Br79V26ad8sniBMHuB9Y-47" target="-wmG-a33t5hdWMa0Z5-S-120">
          <mxGeometry width="50" height="50" relative="1" as="geometry">
            <mxPoint x="-550" y="-289" as="sourcePoint" />
            <mxPoint x="-137" y="-37" as="targetPoint" />
          </mxGeometry>
        </mxCell>
        <mxCell id="Br79V26ad8sniBMHuB9Y-46" value="" style="endArrow=none;html=1;rounded=0;entryX=0;entryY=0.75;entryDx=0;entryDy=0;exitX=1;exitY=0.5;exitDx=0;exitDy=0;" edge="1" parent="1" source="Br79V26ad8sniBMHuB9Y-34" target="-wmG-a33t5hdWMa0Z5-S-14">
          <mxGeometry width="50" height="50" relative="1" as="geometry">
            <mxPoint x="-1060" y="253" as="sourcePoint" />
            <mxPoint x="-1250" y="250" as="targetPoint" />
          </mxGeometry>
        </mxCell>
        <mxCell id="Br79V26ad8sniBMHuB9Y-47" value="has" style="shape=rhombus;perimeter=rhombusPerimeter;whiteSpace=wrap;html=1;align=center;" vertex="1" parent="1">
          <mxGeometry x="-580" y="-319" width="120" height="60" as="geometry" />
        </mxCell>
        <mxCell id="Br79V26ad8sniBMHuB9Y-48" value="has" style="shape=rhombus;perimeter=rhombusPerimeter;whiteSpace=wrap;html=1;align=center;" vertex="1" parent="1">
          <mxGeometry x="125" y="-320" width="120" height="60" as="geometry" />
        </mxCell>
        <mxCell id="Br79V26ad8sniBMHuB9Y-51" value="criticized" style="shape=rhombus;perimeter=rhombusPerimeter;whiteSpace=wrap;html=1;align=center;" vertex="1" parent="1">
          <mxGeometry x="505" y="-60" width="120" height="60" as="geometry" />
        </mxCell>
        <mxCell id="Br79V26ad8sniBMHuB9Y-62" value="" style="endArrow=none;html=1;rounded=0;entryX=0.5;entryY=1;entryDx=0;entryDy=0;exitX=0.5;exitY=0;exitDx=0;exitDy=0;" edge="1" parent="1" source="Br79V26ad8sniBMHuB9Y-2" target="-wmG-a33t5hdWMa0Z5-S-27">
          <mxGeometry width="50" height="50" relative="1" as="geometry">
            <mxPoint x="-630" y="648" as="sourcePoint" />
            <mxPoint x="-630" y="490" as="targetPoint" />
          </mxGeometry>
        </mxCell>
        <mxCell id="Br79V26ad8sniBMHuB9Y-64" value="" style="endArrow=none;html=1;rounded=0;entryX=1;entryY=0.5;entryDx=0;entryDy=0;exitX=0;exitY=0.5;exitDx=0;exitDy=0;" edge="1" parent="1" source="Br79V26ad8sniBMHuB9Y-48" target="-wmG-a33t5hdWMa0Z5-S-97">
          <mxGeometry width="50" height="50" relative="1" as="geometry">
            <mxPoint x="575" y="-50" as="sourcePoint" />
            <mxPoint x="575" y="-250" as="targetPoint" />
          </mxGeometry>
        </mxCell>
        <mxCell id="Br79V26ad8sniBMHuB9Y-65" value="" style="endArrow=none;html=1;rounded=0;entryX=0;entryY=0.5;entryDx=0;entryDy=0;exitX=0.958;exitY=0.5;exitDx=0;exitDy=0;exitPerimeter=0;" edge="1" parent="1" source="Br79V26ad8sniBMHuB9Y-48" target="-wmG-a33t5hdWMa0Z5-S-109">
          <mxGeometry width="50" height="50" relative="1" as="geometry">
            <mxPoint x="135" y="-280" as="sourcePoint" />
            <mxPoint x="-154" y="-280" as="targetPoint" />
          </mxGeometry>
        </mxCell>
        <mxCell id="Br79V26ad8sniBMHuB9Y-66" value="" style="endArrow=none;html=1;rounded=0;entryX=0;entryY=0.5;entryDx=0;entryDy=0;exitX=1;exitY=0.5;exitDx=0;exitDy=0;" edge="1" parent="1" source="Br79V26ad8sniBMHuB9Y-47" target="-wmG-a33t5hdWMa0Z5-S-97">
          <mxGeometry width="50" height="50" relative="1" as="geometry">
            <mxPoint x="-870" y="-290" as="sourcePoint" />
            <mxPoint x="-1230" y="-290" as="targetPoint" />
          </mxGeometry>
        </mxCell>
        <mxCell id="Br79V26ad8sniBMHuB9Y-67" value="" style="shape=link;html=1;rounded=0;entryX=0.5;entryY=1;entryDx=0;entryDy=0;" edge="1" parent="1" target="-wmG-a33t5hdWMa0Z5-S-109">
          <mxGeometry relative="1" as="geometry">
            <mxPoint x="565" y="-60" as="sourcePoint" />
            <mxPoint x="640" y="-240" as="targetPoint" />
          </mxGeometry>
        </mxCell>
        <mxCell id="Br79V26ad8sniBMHuB9Y-68" value="N" style="resizable=0;html=1;whiteSpace=wrap;align=right;verticalAlign=bottom;" connectable="0" vertex="1" parent="Br79V26ad8sniBMHuB9Y-67">
          <mxGeometry x="1" relative="1" as="geometry">
            <mxPoint x="-5" y="21" as="offset" />
          </mxGeometry>
        </mxCell>
        <mxCell id="Br79V26ad8sniBMHuB9Y-69" value="" style="shape=link;html=1;rounded=0;entryX=0.5;entryY=0;entryDx=0;entryDy=0;exitX=0.5;exitY=1;exitDx=0;exitDy=0;" edge="1" parent="1" source="Br79V26ad8sniBMHuB9Y-51" target="-wmG-a33t5hdWMa0Z5-S-35">
          <mxGeometry relative="1" as="geometry">
            <mxPoint x="575" y="-50" as="sourcePoint" />
            <mxPoint x="575" y="-262" as="targetPoint" />
          </mxGeometry>
        </mxCell>
        <mxCell id="Br79V26ad8sniBMHuB9Y-70" value="M" style="resizable=0;html=1;whiteSpace=wrap;align=right;verticalAlign=bottom;" connectable="0" vertex="1" parent="Br79V26ad8sniBMHuB9Y-69">
          <mxGeometry x="1" relative="1" as="geometry">
            <mxPoint x="-5" as="offset" />
          </mxGeometry>
        </mxCell>
        <mxCell id="Br79V26ad8sniBMHuB9Y-71" value="1" style="text;html=1;align=center;verticalAlign=middle;resizable=0;points=[];autosize=1;strokeColor=none;fillColor=none;" vertex="1" parent="1">
          <mxGeometry x="-165" y="-322" width="30" height="30" as="geometry" />
        </mxCell>
        <mxCell id="Br79V26ad8sniBMHuB9Y-72" value="1" style="text;html=1;align=center;verticalAlign=middle;resizable=0;points=[];autosize=1;strokeColor=none;fillColor=none;" vertex="1" parent="1">
          <mxGeometry x="485" y="-292" width="30" height="30" as="geometry" />
        </mxCell>
        <mxCell id="Br79V26ad8sniBMHuB9Y-74" value="1" style="text;html=1;align=center;verticalAlign=middle;resizable=0;points=[];autosize=1;strokeColor=none;fillColor=none;" vertex="1" parent="1">
          <mxGeometry x="-755" y="-309" width="30" height="30" as="geometry" />
        </mxCell>
        <mxCell id="Br79V26ad8sniBMHuB9Y-75" value="1" style="text;html=1;align=center;verticalAlign=middle;resizable=0;points=[];autosize=1;strokeColor=none;fillColor=none;" vertex="1" parent="1">
          <mxGeometry x="-293.75" y="-292" width="30" height="30" as="geometry" />
        </mxCell>
        <mxCell id="Br79V26ad8sniBMHuB9Y-77" value="has" style="shape=rhombus;perimeter=rhombusPerimeter;whiteSpace=wrap;html=1;align=center;" vertex="1" parent="1">
          <mxGeometry x="-760" y="-40" width="120" height="60" as="geometry" />
        </mxCell>
        <mxCell id="Br79V26ad8sniBMHuB9Y-81" value="" style="shape=link;html=1;rounded=0;entryX=0.75;entryY=1;entryDx=0;entryDy=0;exitX=0;exitY=0;exitDx=0;exitDy=0;" edge="1" parent="1" source="Br79V26ad8sniBMHuB9Y-77" target="-wmG-a33t5hdWMa0Z5-S-120">
          <mxGeometry relative="1" as="geometry">
            <mxPoint x="-790.6199999999999" y="40" as="sourcePoint" />
            <mxPoint x="-790.6199999999999" y="-172" as="targetPoint" />
          </mxGeometry>
        </mxCell>
        <mxCell id="Br79V26ad8sniBMHuB9Y-82" value="N" style="resizable=0;html=1;whiteSpace=wrap;align=right;verticalAlign=bottom;" connectable="0" vertex="1" parent="Br79V26ad8sniBMHuB9Y-81">
          <mxGeometry x="1" relative="1" as="geometry">
            <mxPoint x="-5" y="21" as="offset" />
          </mxGeometry>
        </mxCell>
        <mxCell id="Br79V26ad8sniBMHuB9Y-85" value="" style="shape=link;html=1;rounded=0;entryX=0.5;entryY=1;entryDx=0;entryDy=0;exitX=0.5;exitY=0;exitDx=0;exitDy=0;" edge="1" parent="1" source="-wmG-a33t5hdWMa0Z5-S-14" target="Br79V26ad8sniBMHuB9Y-77">
          <mxGeometry relative="1" as="geometry">
            <mxPoint x="-720" y="-15" as="sourcePoint" />
            <mxPoint x="-770" y="-267" as="targetPoint" />
          </mxGeometry>
        </mxCell>
        <mxCell id="Br79V26ad8sniBMHuB9Y-86" value="M" style="resizable=0;html=1;whiteSpace=wrap;align=right;verticalAlign=bottom;" connectable="0" vertex="1" parent="Br79V26ad8sniBMHuB9Y-85">
          <mxGeometry x="1" relative="1" as="geometry">
            <mxPoint x="40" y="199" as="offset" />
          </mxGeometry>
        </mxCell>
        <mxCell id="Br79V26ad8sniBMHuB9Y-87" value="" style="endArrow=none;html=1;rounded=0;" edge="1" parent="1">
          <mxGeometry width="50" height="50" relative="1" as="geometry">
            <mxPoint y="630" as="sourcePoint" />
            <mxPoint y="470" as="targetPoint" />
          </mxGeometry>
        </mxCell>
        <mxCell id="Br79V26ad8sniBMHuB9Y-88" value="1" style="text;html=1;align=center;verticalAlign=middle;resizable=0;points=[];autosize=1;strokeColor=none;fillColor=none;" vertex="1" parent="1">
          <mxGeometry x="-45" y="598" width="30" height="30" as="geometry" />
        </mxCell>
        <mxCell id="Br79V26ad8sniBMHuB9Y-89" value="M" style="text;html=1;align=center;verticalAlign=middle;resizable=0;points=[];autosize=1;strokeColor=none;fillColor=none;" vertex="1" parent="1">
          <mxGeometry x="-35" y="258" width="30" height="30" as="geometry" />
        </mxCell>
      </root>
    </mxGraphModel>
  </diagram>
</mxfile>
